<?xml version="1.0" encoding="UTF-8"?>
<svg xmlns="http://www.w3.org/2000/svg" width="30px" height="30px" viewBox="0 0 12 12" version="1.1">
    <g id="surface1">
        <path d="M 2.851562 8.675781 C 3.351562 8.359375 3.855469 8.121094 4.363281 7.960938 C 4.871094 7.804688 5.417969 7.726562 6 7.726562 C 6.582031 7.726562 7.136719 7.808594 7.65625 7.976562 C 8.175781 8.140625 8.683594 8.375 9.175781 8.675781 C 9.515625 8.226562 9.761719 7.789062 9.90625 7.367188 C 10.050781 6.949219 10.125 6.492188 10.125 6 C 10.125 4.832031 9.730469 3.855469 8.9375 3.0625 C 8.144531 2.269531 7.167969 1.875 6 1.875 C 4.832031 1.875 3.855469 2.269531 3.0625 3.0625 C 2.269531 3.855469 1.875 4.832031 1.875 6 C 1.875 6.5 1.949219 6.957031 2.09375 7.367188 C 2.238281 7.78125 2.492188 8.214844 2.851562 8.675781 Z M 6 6.425781 C 5.507812 6.425781 5.09375 6.257812 4.757812 5.917969 C 4.417969 5.582031 4.25 5.167969 4.25 4.675781 C 4.25 4.191406 4.417969 3.777344 4.757812 3.4375 C 5.09375 3.097656 5.507812 2.925781 6 2.925781 C 6.492188 2.925781 6.90625 3.097656 7.242188 3.4375 C 7.582031 3.777344 7.75 4.195312 7.75 4.6875 C 7.75 5.171875 7.582031 5.582031 7.242188 5.917969 C 6.90625 6.257812 6.492188 6.425781 6 6.425781 Z M 5.988281 11.261719 C 5.269531 11.261719 4.59375 11.125 3.957031 10.851562 C 3.320312 10.574219 2.757812 10.195312 2.273438 9.710938 C 1.792969 9.230469 1.414062 8.671875 1.144531 8.042969 C 0.871094 7.414062 0.738281 6.734375 0.738281 6 C 0.738281 5.273438 0.875 4.59375 1.148438 3.957031 C 1.425781 3.320312 1.804688 2.761719 2.289062 2.28125 C 2.769531 1.800781 3.328125 1.421875 3.957031 1.144531 C 4.585938 0.863281 5.269531 0.726562 6.011719 0.726562 C 6.738281 0.726562 7.417969 0.863281 8.050781 1.144531 C 8.683594 1.421875 9.238281 1.800781 9.71875 2.28125 C 10.199219 2.761719 10.578125 3.320312 10.855469 3.957031 C 11.136719 4.59375 11.273438 5.273438 11.273438 6 C 11.273438 6.734375 11.136719 7.414062 10.855469 8.042969 C 10.578125 8.671875 10.199219 9.230469 9.71875 9.710938 C 9.238281 10.195312 8.679688 10.574219 8.042969 10.851562 C 7.40625 11.125 6.722656 11.261719 5.988281 11.261719 Z M 5.988281 11.261719 "/>
    </g>
</svg>
