<?xml version="1.0" encoding="UTF-8"?>
<svg xmlns="http://www.w3.org/2000/svg" xmlns:xlink="http://www.w3.org/1999/xlink" width="px" height="px" viewBox="0 0 12 12" version="1.1">
<g id="surface1">
<path style=" stroke:none;fill-rule:nonzero;fill:rgb(0%,0%,0%);fill-opacity:1;" d="M 1.539062 11.675781 L 1.539062 10.960938 L 10.460938 10.960938 L 10.460938 11.675781 Z M 1.539062 1.023438 L 1.539062 0.3125 L 10.460938 0.3125 L 10.460938 1.023438 Z M 6 6.550781 C 6.433594 6.550781 6.796875 6.402344 7.09375 6.113281 C 7.390625 5.820312 7.539062 5.460938 7.539062 5.039062 C 7.539062 4.605469 7.390625 4.242188 7.09375 3.949219 C 6.796875 3.660156 6.433594 3.511719 6 3.511719 C 5.574219 3.511719 5.214844 3.660156 4.917969 3.949219 C 4.621094 4.242188 4.476562 4.605469 4.476562 5.039062 C 4.476562 5.460938 4.621094 5.820312 4.917969 6.113281 C 5.214844 6.402344 5.574219 6.550781 6 6.550781 Z M 1.800781 10.25 C 1.492188 10.25 1.226562 10.136719 1 9.90625 C 0.773438 9.675781 0.664062 9.414062 0.664062 9.113281 L 0.664062 2.886719 C 0.664062 2.5625 0.773438 2.292969 1 2.074219 C 1.226562 1.859375 1.492188 1.75 1.800781 1.75 L 10.210938 1.75 C 10.511719 1.75 10.773438 1.863281 11 2.09375 C 11.226562 2.324219 11.335938 2.585938 11.335938 2.886719 L 11.335938 9.113281 C 11.335938 9.414062 11.226562 9.675781 11 9.90625 C 10.773438 10.136719 10.511719 10.25 10.210938 10.25 Z M 2.664062 9.25 L 9.335938 9.25 C 8.972656 8.707031 8.476562 8.292969 7.855469 8 C 7.234375 7.707031 6.617188 7.5625 6 7.5625 C 5.375 7.5625 4.757812 7.707031 4.148438 8 C 3.542969 8.292969 3.046875 8.707031 2.664062 9.25 Z M 2.664062 9.25 "/>
</g>
</svg>
