<?xml version="1.0" encoding="UTF-8"?>
<svg xmlns="http://www.w3.org/2000/svg" width="30px" height="30px" viewBox="0 0 12 12" version="1.1">
    <g id="surface1">
        <path d="M 9.3125 6.585938 L 9.3125 5.039062 L 7.761719 5.039062 L 7.761719 4.175781 L 9.3125 4.175781 L 9.3125 2.636719 L 10.175781 2.636719 L 10.175781 4.175781 L 11.710938 4.175781 L 11.710938 5.039062 L 10.175781 5.039062 L 10.175781 6.585938 Z M 4.523438 5.835938 C 3.882812 5.835938 3.363281 5.636719 2.96875 5.238281 C 2.574219 4.835938 2.375 4.320312 2.375 3.6875 C 2.375 3.054688 2.574219 2.539062 2.96875 2.136719 C 3.363281 1.738281 3.882812 1.539062 4.523438 1.539062 C 5.160156 1.539062 5.675781 1.734375 6.082031 2.132812 C 6.484375 2.527344 6.6875 3.046875 6.6875 3.6875 C 6.6875 4.320312 6.488281 4.835938 6.085938 5.238281 C 5.6875 5.636719 5.167969 5.835938 4.523438 5.835938 Z M 0.25 10.375 L 0.25 8.925781 C 0.25 8.566406 0.339844 8.253906 0.519531 7.980469 C 0.699219 7.710938 0.949219 7.5 1.273438 7.351562 C 1.910156 7.058594 2.476562 6.855469 2.976562 6.742188 C 3.476562 6.632812 3.988281 6.574219 4.511719 6.574219 C 5.054688 6.574219 5.574219 6.632812 6.074219 6.75 C 6.574219 6.867188 7.140625 7.066406 7.773438 7.351562 C 8.101562 7.492188 8.355469 7.699219 8.539062 7.96875 C 8.722656 8.238281 8.8125 8.558594 8.8125 8.925781 L 8.8125 10.375 Z M 0.25 10.375 "/>
    </g>
</svg>
